<?xml version="1.0" encoding="UTF-8" standalone="no"?><!DOCTYPE svg PUBLIC "-//W3C//DTD SVG 1.1//EN" "http://www.w3.org/Graphics/SVG/1.1/DTD/svg11.dtd"><svg width="100%" height="100%" viewBox="0 0 160 160" version="1.1" xmlns="http://www.w3.org/2000/svg" xmlns:xlink="http://www.w3.org/1999/xlink" xml:space="preserve" xmlns:serif="http://www.serif.com/" style="fill-rule:evenodd;clip-rule:evenodd;stroke-linecap:round;stroke-linejoin:round;stroke-miterlimit:1.5;"><path d="M99.799,11.873l39.598,28.769l-19.799,27.251l32.035,10.409l-15.125,46.55l-32.035,-10.409l0,33.684l-48.945,0l-0,-33.684l-32.035,10.409l-15.125,-46.55l32.035,-10.409l-19.799,-27.251l39.598,-28.769l19.799,27.251l19.799,-27.251Z" style="fill:#393939;"/><path d="M82.574,54.56l-4.324,21.413l18.071,0.058l-14.071,29.335l2.715,-20.565l-21.47,0.134l19.08,-30.377Z" style="fill:#fffd00;stroke:#000;stroke-width:1.51px;"/><ellipse cx="29.148" cy="96.173" rx="4.94" ry="4.986" style="fill:#666;"/><ellipse cx="46.115" cy="37.418" rx="4.94" ry="4.986" style="fill:#666;"/><ellipse cx="111.453" cy="37.418" rx="4.94" ry="4.986" style="fill:#666;"/><ellipse cx="131.856" cy="96.173" rx="4.94" ry="4.986" style="fill:#666;"/><ellipse cx="80" cy="134.884" rx="4.94" ry="4.986" style="fill:#666;"/></svg>