<?xml version="1.0" encoding="UTF-8" standalone="no"?><!DOCTYPE svg PUBLIC "-//W3C//DTD SVG 1.1//EN" "http://www.w3.org/Graphics/SVG/1.1/DTD/svg11.dtd"><svg width="100%" height="100%" viewBox="0 0 160 160" version="1.1" xmlns="http://www.w3.org/2000/svg" xmlns:xlink="http://www.w3.org/1999/xlink" xml:space="preserve" xmlns:serif="http://www.serif.com/" style="fill-rule:evenodd;clip-rule:evenodd;stroke-linecap:round;stroke-linejoin:round;stroke-miterlimit:1.5;"><clipPath id="_clip1"><polygon points="2.526,35.55 77.398,15.926 97.022,90.798 22.15,110.422 2.526,35.55 "/></clipPath><g clip-path="url(#_clip1)"><path d="M82.304,34.644l9.812,37.436c2.708,10.331 -3.403,20.896 -13.637,23.578l-37.786,9.904c-10.234,2.682 -20.741,-3.527 -23.449,-13.858l-9.812,-37.436c-2.708,-10.331 3.403,-20.896 13.637,-23.578l37.786,-9.904c10.234,-2.682 20.741,3.527 23.449,13.858Z" style="fill:#7e7e7e;"/><path d="M68.622,30.587l13.561,51.74l-51.256,13.434l-13.561,-51.74l51.256,-13.434Z" style="fill:#525252;"/><path d="M23.649,45.724c1.416,-0.371 2.87,0.488 3.245,1.918c0.375,1.43 -0.471,2.891 -1.887,3.263c-1.416,0.371 -2.87,-0.488 -3.245,-1.918c-0.375,-1.43 0.471,-2.891 1.887,-3.263Z" style="fill:#393939;"/><path d="M65.283,34.811c1.416,-0.371 2.87,0.488 3.245,1.918c0.375,1.43 -0.471,2.891 -1.887,3.263c-1.416,0.371 -2.87,-0.488 -3.245,-1.918c-0.375,-1.43 0.471,-2.891 1.887,-3.263Z" style="fill:#393939;"/><path d="M34.047,85.397c1.416,-0.371 2.87,0.488 3.245,1.918c0.375,1.43 -0.471,2.891 -1.887,3.263c-1.416,0.371 -2.87,-0.488 -3.245,-1.918c-0.375,-1.43 0.471,-2.891 1.887,-3.263Z" style="fill:#393939;"/><path d="M75.682,74.484c1.416,-0.371 2.87,0.488 3.245,1.918c0.375,1.43 -0.471,2.891 -1.887,3.263c-1.416,0.371 -2.87,-0.488 -3.245,-1.918c-0.375,-1.43 0.471,-2.891 1.887,-3.263Z" style="fill:#393939;"/><path d="M46.639,43.176l0.987,17.266l13.85,-3.583l-4.887,25.289l-2.049,-16.293l-16.415,4.412l8.514,-27.092Z" style="fill:#fffd00;stroke:#000;stroke-width:1.19px;"/></g><path d="M121.624,39.828l3.42,8.378l8.862,-1.828c2.173,1.668 4.179,3.543 5.99,5.599l-1.227,8.966l8.59,2.848c1.047,2.531 1.847,5.158 2.388,7.844l-5.545,7.151l6.015,6.761c-0.358,2.716 -0.979,5.391 -1.854,7.987l-8.378,3.42l1.828,8.862c-1.668,2.173 -3.543,4.179 -5.599,5.99l-8.966,-1.227l-2.848,8.59c-2.531,1.047 -5.158,1.847 -7.844,2.388l-7.151,-5.545l-6.761,6.015c-2.716,-0.358 -5.391,-0.979 -7.987,-1.854l-3.42,-8.378l-8.862,1.828c-2.173,-1.668 -4.179,-3.543 -5.99,-5.599l1.227,-8.966l-8.59,-2.848c-1.047,-2.531 -1.847,-5.158 -2.388,-7.844l5.545,-7.151l-6.015,-6.761c0.358,-2.716 0.979,-5.391 1.854,-7.987l8.378,-3.42l-1.828,-8.862c1.668,-2.173 3.543,-4.179 5.599,-5.99l8.966,1.227l2.848,-8.59c2.531,-1.047 5.158,-1.847 7.844,-2.388l7.151,5.545l6.761,-6.015c2.716,0.358 5.391,0.979 7.987,1.854Zm-9.804,24.106c8.867,2.058 14.395,10.928 12.337,19.795c-2.058,8.867 -10.928,14.395 -19.795,12.337c-8.867,-2.058 -14.395,-10.928 -12.337,-19.795c2.058,-8.867 10.928,-14.395 19.795,-12.337Z" style="fill:#919191;stroke:#797979;stroke-width:0.67px;"/></svg>